<svg aria-hidden="true" style="position:absolute;width:0;height:0" xmlns="http://www.w3.org/2000/svg" overflow="hidden"><defs><symbol id="icon-t-facebook" viewBox="0 0 32 32"><path fill="var(--color1, #fff)" d="M32 16A16 16 0 015 27 16 16 0 0116 0c4 0 8 2 11 5s5 7 5 11z"/><path fill="var(--color2, #afb1b8)" d="M18 11h2V9h-2c-2 0-3 1-3 3v2h-3v3h3v6h2v-6h2l1-3h-3v-2l1-1z"/></symbol><symbol id="icon-t-linkidin" viewBox="0 0 32 32"><path fill="var(--color1, #fff)" d="M32 16A16 16 0 015 27 16 16 0 0116 0c4 0 8 2 11 5s5 7 5 11z"/><path fill="var(--color2, #afb1b8)" d="M23 23v-5c0-3 0-5-3-5-2 0-3 1-3 2v-1h-3v9h3v-5c0-1 0-2 2-2l1 3v4h3zM9 14h3v9H9v-9zM10 9l-1 1 1 2 2-2-2-1z"/></symbol><symbol id="icon-t-instagram" viewBox="0 0 32 32"><path fill="var(--color1, #fff)" d="M32 16A16 16 0 015 27 16 16 0 0116 0c4 0 8 2 11 5s5 7 5 11z"/><path fill="var(--color2, #afb1b8)" d="M23 13v-2l-1-1-1-1h-2a49 49 0 00-8 0l-1 1-1 1v2a50 50 0 000 8l1 1 1 1h2a53 53 0 008 0l2-2v-2-3-3zm-1 6v1l-2 2h-1a51 51 0 01-7 0l-1-1-1-1v-1a51 51 0 010-7l1-1 1-1h1a51 51 0 017 0l1 1 1 1v7z"/><path fill="var(--color2, #afb1b8)" d="M16 12a4 4 0 100 8 4 4 0 000-8zm0 6a2 2 0 110-4 2 2 0 010 4zM21 12a1 1 0 11-2 0 1 1 0 012 0z"/></symbol><symbol id="icon-t-twiter" viewBox="0 0 32 32"><path fill="var(--color1, #fff)" d="M32 16A16 16 0 015 27 16 16 0 0116 0c4 0 8 2 11 5s5 7 5 11z"/><path fill="var(--color2, #afb1b8)" d="M23 11l-1 1 1-2-2 1a3 3 0 00-5 3c-3 0-5-2-6-3a3 3 0 001 4l-2-1c0 2 1 3 3 3a3 3 0 01-2 0l3 2a6 6 0 01-4 2l4 1a8 8 0 009-9l1-2z"/></symbol></defs></svg>