<svg width="89" height="46" fill="none" xmlns="http://www.w3.org/2000/svg"><path d="M45 21l-1-2v-3l1-2h4v3h-1v-1l-1-1h-1v6h1v-1h1v-1h1v2l-2 1-2-1zM51 21v-5-2h4l1 2v3l-1 2-2 1-2-1zm3 0v-5-1h-1-1v6a1 1 0 001 0 1 1 0 001 0zM58 14h1l1 5 2-5h1l1 8h-2v-6l-1 6h-1l-1-6v6h-2l1-8zM65 14h3c1 0 2 0 2 2l-2 2h-1v4h-2v-8zm3 3a1 1 0 001 0v-1-1a1 1 0 00-1 0h-1v2h1zM73 14h1l2 8h-1l-1-2h-1l-1 2h-1l2-8zm1 5l-1-3v3h1zM77 14h2l2 4v-4h1v8h-1l-2-5v5h-2v-8zM85 19l-2-5h2l1 3 1-3h1l-1 5v3h-2v-3zM47 26h-1v3h-1v-3h-1 3zM51 29l-1-1h-1l-1 1 1-3h1l1 3zm-2-1h1v-2h-1v2zM54 29a2 2 0 001 0v-1h-1 2v1a2 2 0 01-2 0h-1a2 2 0 01-1-1v-1a2 2 0 011-1h1a3 3 0 011 0 2 2 0 00-2 0v2a1 1 0 001 1zM59 29h2-2v-3 3zM63 29h-1v-3h1v3zM65 26l2 3v-3h1v3h-1l-2-3v3h-1v-3h1zM72 26h-2v1h1v1h-1v1h2-3v-3h3zM14 2l25 6v23l-25-6V2zm-1-2v26l27 7V7L13 0z" fill="#AFB1B8"/><path d="M27 45L0 38V12l27 7v26z" fill="#AFB1B8"/><path d="M13 2l24 6-10 10-24-7 10-9zm0-2L0 12l27 7L40 7 13 0zM29 44l11-11-11-3v14z" fill="#AFB1B8"/></svg>