<svg width="41" height="43" fill="none" xmlns="http://www.w3.org/2000/svg"><path d="M6 42h1-1l-1 1-1-1a2 2 0 010-1 2 2 0 010-1 2 2 0 011-1 2 2 0 011 0h1l-1 1v-1a1 1 0 00-1 0l-1 1v2h2zM12 41v1h-1-2v-2-1h3v2zm0 0v-1h-1v-1h-1a1 1 0 00-1 1v2h2a1 1 0 001-1zM16 41h1l1-2v4-3l-1 2h-1l-1-2v3h-1v-4h1l1 2zM21 41v2-4h2v2h-2zm0 0h2v-1a1 1 0 000-1h-2v2zM28 43v-1h-3v1l1-4h1l1 4zm-2-2h1l-1-1v-1 2zM30 39h1l2 3v-3 3l-2-2v3h-1v-4zM37 41v2h-1v-2l-1-2h1l1 1a2 2 0 010 1v-1l1-1-1 2zM16 33h1l8-7c2-3 3-7 3-10l-4-4c1 4 1 8-1 11-1 4-4 7-7 10z" fill="#AFB1B8"/><path d="M15 32c3-2 6-5 7-9 2-4 2-8 1-12l-5-5a24 24 0 01-3 26zM33 20a19 19 0 01-9 12l7-4c2-1 3-4 4-6l-2-2z" fill="#AFB1B8"/><path d="M32 19l-3-3c0 4-1 7-3 10l-7 7h2c3-1 5-3 7-6 2-2 4-5 4-8zM15 4l-4-4C8 1 5 3 3 6s-3 6-3 10 1 7 4 10c2 3 6 5 10 6a24 24 0 001-28zM41 19c0-5-2-9-5-12a18 18 0 00-19-4l23 22 1-6z" fill="#AFB1B8"/></svg>