<svg aria-hidden="true" style="position: absolute; width: 0; height: 0; overflow: hidden;" version="1.1" xmlns="http://www.w3.org/2000/svg" xmlns:xlink="http://www.w3.org/1999/xlink">
<defs>
<symbol id="logo-1" viewBox="0 0 29 32">
<path d="M3.84 0l4.48 4.48h13.44v12.16l4.48 4.48v-21.12h-22.4z"></path>
<path d="M0 4.48v20.48h21.76v-8.32l-12.8-12.16h-8.96zM17.92 21.76h-14.72v-14.080h1.28v13.44h13.44v0.64zM6.4 28.8v0 1.28h-0.64v-1.28l-0.64-1.28h0.64l0.64 1.28zM8.32 29.44h-0.64v0.64h-0.64l0.64-2.56h0.64l0.64 2.56-0.64-0.64zM7.68 28.8h0.64v-0.64l-0.64 0.64zM10.24 29.44v-1.92h1.28v0.64l-0.64 0.64 1.28 1.28h-0.64v-0.64l-0.64 0.64-0.64-0.64zM10.88 29.44v-0.64l-0.64 0.64h0.64zM14.72 28.8v0.64l-0.64 0.64h-0.64l-0.64-0.64v-1.28c-0.048-0.093-0.076-0.203-0.076-0.32 0-0.395 0.32-0.716 0.716-0.716 0.279 0 0.52 0.159 0.638 0.391l0.002 0.004h0.64v0.64h-1.28v1.28h0.64v-0.64h0.64zM16.64 28.8v0.64l-0.64 0.64-1.28-1.28 0.64-0.64v-0.64h1.28v1.28zM16.64 28.8v-0.64h-1.28v1.28h1.28v-0.64z"></path>
</symbol>
<symbol id="logo-2" viewBox="0 0 25 32">
<path d="M10.462 1.846h0.615l1.846 0.615v-1.846c-0.901-0.309-1.948-0.528-3.032-0.613l-0.045-0.003c-0.006 0-0.013 0-0.021 0-3.39 0-6.567 0.914-9.298 2.509l0.088-0.047v17.846c2.306-1.322 5.026-2.203 7.926-2.456l0.074-0.005h1.231v-1.846c-2.438 0.037-4.759 0.485-6.914 1.277l0.145-0.047h-0.615v-13.538c2.149-1.109 4.681-1.784 7.365-1.846l0.020-0h0.615z"></path>
<path d="M14.769 3.692c-1.144-0.116-2.188-0.333-3.19-0.646l0.113 0.030v17.231l3.077 0.615c0.006 0 0.013 0 0.021 0 3.39 0 6.567-0.914 9.298-2.509l-0.088 0.047v-17.231c-2.662 1.501-5.835 2.407-9.215 2.461l-0.016 0zM21.538 3.692h0.615v13.538c-2.269 1.176-4.953 1.866-7.798 1.866-0.287 0-0.573-0.007-0.857-0.021l0.040 0.002h-0.615v-14.154h1.846c2.438-0.037 4.759-0.485 6.914-1.277l-0.145 0.047zM1.846 25.846c-0.088-0.052-0.194-0.082-0.308-0.082s-0.219 0.031-0.311 0.084l0.003-0.002h-0.615c-0.274 0.126-0.489 0.341-0.612 0.608l-0.003 0.008v3.077h0.615v0.615h0.615c0.376-0.215 0.626-0.614 0.626-1.072 0-0.056-0.004-0.111-0.011-0.165l0.001 0.006h-0.615v0.615c-0.088 0.052-0.194 0.082-0.308 0.082s-0.219-0.031-0.311-0.084l0.003 0.002v-3.077c0.088-0.052 0.194-0.082 0.308-0.082s0.219 0.031 0.311 0.084l-0.003-0.002v0.615h0.615v-0.615c0.025-0.092 0.039-0.198 0.039-0.308s-0.014-0.215-0.041-0.316l0.002 0.009zM5.538 25.846c-0.177-0.104-0.389-0.165-0.615-0.165s-0.439 0.061-0.621 0.168l0.006-0.003h-0.615v3.692l0.615 0.615c0.092 0.025 0.198 0.039 0.308 0.039s0.215-0.014 0.316-0.041l-0.009 0.002 0.615-0.615c0.025-0.092 0.039-0.198 0.039-0.308s-0.014-0.215-0.041-0.316l0.002 0.009v-3.077zM4.923 28.923c0.052 0.088 0.082 0.194 0.082 0.308s-0.031 0.219-0.084 0.311l0.002-0.003c-0.088 0.052-0.194 0.082-0.308 0.082s-0.219-0.031-0.311-0.084l0.003 0.002c-0.052-0.088-0.082-0.194-0.082-0.308s0.031-0.219 0.084-0.311l-0.002 0.003v-2.462c0.088-0.052 0.194-0.082 0.308-0.082s0.219 0.031 0.311 0.084l-0.003-0.002v2.462zM9.846 30.154v-4.308h-0.615l-0.615 1.846-0.615-1.846h-0.615v4.308h0.615v-2.462l0.615 1.231 0.615-1.231v2.462h0.615zM13.538 25.846h-1.846v4.308h0.615v-1.846h1.231v-0.615c0.040-0.185 0.062-0.398 0.062-0.615s-0.023-0.43-0.066-0.635l0.004 0.020v-0.615zM12.923 27.077v0.615h-0.615v-1.231h0.615v0.615zM16.615 25.846h-0.615l-1.231 4.308h0.615l0.615-1.231h0.615v1.231h0.615l-0.615-4.308zM16 28.308v-1.231l0.615 1.231h-0.615zM20.308 28.308l-1.231-2.462v1.846h0.615l0.615 2.462h0.615v-4.308h-0.615v2.462zM24 25.846l-0.615 1.846-0.615-1.846h-0.615l1.231 2.462v1.846h0.615v-1.846l0.615-2.462h-0.615zM0 31.385v0.615h0.615v-1.231h-0.615v0.615zM2.462 30.769l-0.615 1.231h1.231l-0.615-1.231zM4.923 31.385v0.615l-0.615-0.615h1.231l-0.615-0.615-0.615 0.615v0.615c0.088 0.052 0.194 0.082 0.308 0.082s0.219-0.031 0.311-0.084l-0.003 0.002h0.615v-0.615h-0.615zM7.385 30.769v0zM9.231 30.769v0zM11.692 31.385l-0.615-0.615v0.615l0.615 0.615v-0.615zM13.538 31.385v-0.615h-0.615v1.231h0.615v-0.615zM17.846 31.385h-0.615v0h0.615v0zM19.692 31.385h0.615v-0.615h-0.615v0.615zM22.154 31.385v-0.615h-0.615v0.615h0.615v0zM22.154 31.385v0zM24 31.385h0.615v-0.615h-0.615v0.615z"></path>
</symbol>
<symbol id="logo-3" viewBox="0 0 31 32">
<path d="M4.465 31.256v0l-0.744 0.744-0.744-0.744c-0.030-0.112-0.047-0.24-0.047-0.372s0.017-0.26 0.050-0.382l-0.002 0.010c-0.030-0.112-0.047-0.24-0.047-0.372s0.017-0.26 0.050-0.382l-0.002 0.010c0.152-0.332 0.413-0.592 0.735-0.74l0.009-0.004c0.112-0.030 0.24-0.047 0.372-0.047s0.26 0.017 0.382 0.050l-0.010-0.002h0.744l-0.744 0.744v-0.744c-0.107-0.063-0.235-0.1-0.372-0.1s-0.265 0.037-0.376 0.102l0.003-0.002-0.744 0.744v1.488h1.488zM8.93 30.512v0.744h-2.233v-2.233h2.233v1.488zM8.93 30.512v-0.744h-0.744v-0.744h-0.744c-0.411 0-0.744 0.333-0.744 0.744v0 1.488h1.488c0.411 0 0.744-0.333 0.744-0.744v0zM11.907 30.512h0.744l0.744-1.488v0.744l-0.744 1.488h-0.744l-0.744-1.488v2.233h-0.744v-2.977h0.744l0.744 1.488zM15.628 30.512v1.488-2.977h1.488v1.488h-1.488zM15.628 30.512h1.488v-0.744c0.063-0.107 0.1-0.235 0.1-0.372s-0.037-0.265-0.102-0.376l0.002 0.003h-1.488v1.488zM20.837 32v-0.744h-2.233v0.744l0.744-2.977h0.744l0.744 2.977zM19.349 30.512h0.744l-0.744-0.744v-0.744 1.488zM22.326 29.023h0.744l1.488 2.233-1.488-1.488v2.233h-0.744v-2.977zM27.535 30.512v1.488h-0.744v-1.488l-0.744-1.488h0.744l0.744 0.744c0.030 0.112 0.047 0.24 0.047 0.372s-0.017 0.26-0.050 0.382l0.002-0.010v-0.744l0.744-0.744-0.744 1.488zM11.907 24.558h0.744l5.954-5.209c1.488-2.233 2.233-5.209 2.233-7.442l-2.977-2.977c0.744 2.977 0.744 5.954-0.744 8.186-0.744 2.977-2.977 5.209-5.209 7.442z"></path>
<path d="M11.163 23.814c2.233-1.488 4.465-3.721 5.209-6.698 1.488-2.977 1.488-5.954 0.744-8.93l-3.721-3.721c1.18 2.32 1.871 5.058 1.871 7.958 0 4.343-1.55 8.324-4.127 11.419l0.023-0.029zM24.558 14.884c-0.953 3.843-3.379 6.999-6.63 8.894l-0.067 0.036 5.209-2.977c1.488-0.744 2.233-2.977 2.977-4.465l-1.488-1.488z"></path>
<path d="M23.814 14.14l-2.233-2.233c0 2.977-0.744 5.209-2.233 7.442l-5.209 5.209h1.488c2.233-0.744 3.721-2.233 5.209-4.465 1.488-1.488 2.977-3.721 2.977-5.954zM11.163 2.977l-2.977-2.977c-2.233 0.744-4.465 2.233-5.954 4.465s-2.233 4.465-2.233 7.442 0.744 5.209 2.977 7.442c1.488 2.233 4.465 3.721 7.442 4.465 2.332-2.989 3.74-6.798 3.74-10.936 0-3.69-1.119-7.118-3.036-9.965l0.040 0.064zM30.512 14.14c0-3.721-1.488-6.698-3.721-8.93-2.416-2.378-5.733-3.846-9.394-3.846-1.706 0-3.337 0.319-4.837 0.9l0.091-0.031 17.116 16.372 0.744-4.465z"></path>
</symbol>
<symbol id="logo-4" viewBox="0 0 60 32">
<path d="M8.93 9.674c-1.488 0-2.977 1.488-2.977 2.977s1.488 2.977 2.977 2.977c2.233 0 2.977-1.488 2.977-2.977s-0.744-2.977-2.977-2.977zM32 8.93c0-2.977-1.488-4.465-2.977-6.698-1.488-1.488-3.721-2.233-5.954-2.233l-6.698 2.233c-1.488 2.233-2.233 3.721-2.233 6.698v11.907s17.86-1.488 17.86-11.907zM0 25.302l1.488 4.465c1.096 1.239 2.69 2.016 4.465 2.016s3.369-0.777 4.46-2.009l0.005-0.006c1.488-1.488 1.488-2.977 1.488-4.465v-8.93s-11.907 1.488-11.907 8.93zM5.954 26.791h-0.744l-0.744-0.744c-0.158-0.233-0.252-0.519-0.252-0.828 0-0.645 0.411-1.195 0.985-1.401l0.010-0.003c0.213-0.125 0.47-0.199 0.744-0.199s0.531 0.074 0.751 0.203l-0.007-0.004 0.744 0.744c0.125 0.213 0.199 0.47 0.199 0.744s-0.074 0.531-0.203 0.751l0.004-0.007c-0.26 0.455-0.743 0.757-1.296 0.757-0.068 0-0.135-0.005-0.2-0.013l0.008 0.001zM18.605 26.047h-1.488v1.488-3.721h1.488v0.744h-1.488v0.744h1.488v0.744zM21.581 25.302v1.488c-0.152 0.332-0.413 0.592-0.735 0.74l-0.009 0.004-0.744-0.744h-0.744v-2.233c0.152-0.332 0.413-0.592 0.735-0.74l0.009-0.004h0.744l0.744 0.744v0.744zM20.837 25.302v-0.744h-0.744v2.233h0.744v-1.488zM23.814 26.047h-0.744v-0.744l-0.744-0.744 0.744-0.744h0.744l0.744 0.744v0.744h-0.744v-0.744h-0.744v0.744h0.744l0.744 0.744v0.744l-1.488 0.744v-0.744h-0.744v-0.744h0.744v0.744h0.744v-0.744zM27.535 24.558h-0.744v2.977h-0.744v-2.977h-1.488v-0.744h2.977v0.744zM29.767 26.047h-1.488v0.744h1.488v0.744h-2.233v-3.721h2.233v0.744h-1.488v0.744h1.488v0.744zM31.256 26.047v1.488h-0.744v-3.721h0.744l1.488 1.488-0.744 0.744 0.744 0.744v0.744h-0.744l-0.744-1.488zM31.256 25.302h0.744v-0.744h-0.744v0.744zM34.977 26.047v1.488h-0.744v-3.721h2.233v2.233h-1.488zM34.977 25.302h0.744v-0.744h-0.744v0.744zM38.698 26.047h-0.744v0.744h1.488v0.744h-2.233v-3.721h2.233v0.744h-1.488v0.744h0.744v0.744zM42.419 24.558h-1.488v2.977h-0.744v-2.977h-0.744v-0.744h2.977v0.744zM44.651 26.047h-1.488v0.744h1.488v0.744h-2.233v-3.721h2.233v0.744h-1.488v0.744h1.488v0.744zM46.14 26.047h-0.744v1.488h-0.744v-3.721h1.488l1.488 1.488h-0.744v0.744l0.744 0.744v0.744h-0.744l-0.744-1.488zM45.395 25.302h1.488v-0.744h-1.488v0.744zM49.86 26.047h-0.744l-1.488-1.488 0.744-0.744h1.488v1.488l-0.744-0.744h-0.744v0.744h0.744l0.744 0.744v0.744l-0.744 0.744-0.744-0.744h-0.744v-0.744h0.744l0.744 0.744 0.744-0.744z"></path>
</symbol>
<symbol id="logo-5" viewBox="0 0 40 32">
<path d="M2.723 26.553l0.681 0.681c0.007 0.053 0.011 0.114 0.011 0.176 0 0.506-0.276 0.948-0.686 1.182l-0.007 0.003h-2.723v-4.085h2.723c0.376 0 0.681 0.305 0.681 0.681v0l-0.681 0.681v0.681zM0.681 25.872h1.362c0.057-0.098 0.091-0.215 0.091-0.34s-0.034-0.243-0.093-0.344l0.002 0.003h-1.362v0.681zM2.043 27.915c0.376 0 0.681-0.305 0.681-0.681v0c0-0.376-0.305-0.681-0.681-0.681v0h-1.362v1.362h1.362zM6.809 28.596l-1.362-1.362v1.362h-0.681v-4.085h2.723c0.283 0.251 0.461 0.615 0.461 1.021s-0.178 0.771-0.46 1.020l-0.001 0.001h-0.681l0.681 2.043h-0.681zM5.447 26.553h0.681l0.681-0.681c0.057-0.098 0.091-0.215 0.091-0.34s-0.034-0.243-0.093-0.344l0.002 0.003h-1.362v1.362zM11.574 27.915h-2.043v0.681h-0.681l1.362-4.085h0.681l2.043 4.085h-1.362v-0.681zM11.574 27.234l-0.681-2.043-0.681 2.043h1.362zM17.702 28.596h-0.681l-2.043-2.723v2.723h-1.362v-4.085h1.362l2.043 2.723v-2.723h0.681v4.085zM22.468 27.234l-0.681 1.362h-2.723v-4.085h2.723l0.681 0.681c0.126 0.302 0.199 0.653 0.199 1.021s-0.073 0.719-0.205 1.039l0.007-0.018zM21.787 27.234c0.283-0.251 0.461-0.615 0.461-1.021s-0.178-0.771-0.46-1.020l-0.001-0.001h-2.043v2.723h0.681l1.362-0.681zM12.255 0s10.894 4.085 10.894 10.213v10.894s-11.574-4.766-10.894-10.894v-10.213zM33.362 18.383c2.043-1.362 4.085-2.723 6.809-2.723v-3.404c-2.723 1.362-5.447 3.404-6.809 6.128z"></path>
<path d="M32 19.064c1.362-3.404 4.766-6.128 8.17-7.489v-8.851s-15.66 5.447-15.66 14.298v14.979l2.043-0.681v-1.362c0-4.085 2.043-8.17 5.447-10.894z"></path>
<path d="M29.957 24.511l0.681-2.723c-2.032 2.376-3.302 5.456-3.404 8.83l-0 0.021 3.404-1.362-0.681-4.766zM30.638 25.192l0.681 3.404c4.085-2.723 8.851-6.809 8.851-11.574-3.404 0-6.128 1.362-8.17 3.404l-1.362 4.766z"></path>
</symbol>
<symbol id="logo-6" viewBox="0 0 62 32">
<path d="M31.304 14.609l-0.696-1.391v-2.087l0.696-1.391h2.783v2.087h-0.696v-0.696l-0.696-0.696h-0.696v4.174h0.696v-0.696h0.696v-0.696h0.696v1.391l-1.391 0.696-1.391-0.696zM35.478 14.609v-4.87h2.783l0.696 1.391v2.087l-0.696 1.391-1.391 0.696-1.391-0.696zM37.565 14.609v-4.174h-1.391v4.174c0.1 0.059 0.22 0.093 0.348 0.093s0.248-0.035 0.351-0.095l-0.003 0.002c0.1 0.059 0.22 0.093 0.348 0.093s0.248-0.035 0.351-0.095l-0.003 0.002zM40.348 9.739h0.696l0.696 3.478 1.391-3.478h0.696l0.696 5.565h-1.391v-4.174l-0.696 4.174h-0.696l-0.696-4.174v4.174h-1.391l0.696-5.565zM45.217 9.739h2.087c0.696 0 1.391 0 1.391 1.391l-1.391 1.391h-0.696v2.783h-1.391v-5.565zM47.304 11.826c0.1 0.059 0.22 0.093 0.348 0.093s0.248-0.035 0.351-0.095l-0.003 0.002v-1.391c-0.1-0.059-0.22-0.093-0.348-0.093s-0.248 0.035-0.351 0.095l0.003-0.002h-0.696v1.391h0.696zM50.783 9.739h0.696l1.391 5.565h-0.696l-0.696-1.391h-0.696l-0.696 1.391h-0.696l1.391-5.565zM51.478 13.217l-0.696-2.087v2.087h0.696zM53.565 9.739h1.391l1.391 2.783v-2.783h0.696v5.565h-0.696l-1.391-3.478v3.478h-1.391v-5.565zM59.13 13.217l-1.391-3.478h1.391l0.696 2.087 0.696-2.087h0.696l-0.696 3.478v2.087h-1.391v-2.087zM32.696 18.087h-0.696v2.087h-0.696v-2.087h1.391zM35.478 20.174l-0.696-0.696h-0.696l-0.696 0.696 0.696-2.087h0.696l0.696 2.087zM34.087 19.478h0.696v-1.391h-0.696v1.391zM37.565 20.174c0.104 0.028 0.224 0.044 0.348 0.044s0.243-0.016 0.358-0.046l-0.010 0.002v-0.696h0.696v0.696c-0.2 0.117-0.44 0.186-0.696 0.186s-0.496-0.069-0.702-0.19l0.007 0.004h-0.696c-0.31-0.142-0.553-0.386-0.692-0.687l-0.004-0.009v-0.696c0.142-0.31 0.386-0.553 0.687-0.692l0.009-0.004h0.696c0.105-0.019 0.225-0.029 0.348-0.029s0.243 0.011 0.36 0.031l-0.012-0.002c-0.2-0.117-0.44-0.186-0.696-0.186s-0.496 0.069-0.702 0.19l0.007-0.004v1.391c0 0.384 0.311 0.696 0.696 0.696v0zM41.043 20.174v0 0zM43.826 20.174h-0.696v-2.087h0.696v2.087zM45.217 18.087l1.391 2.087v-2.087h0.696v2.087h-0.696l-1.391-2.087v2.087h-0.696v-2.087h0.696zM50.087 18.087h-1.391v0.696h0.696v0.696h-0.696v0.696h-0.696v-2.087h2.087zM9.739 1.391l17.391 4.174v16l-17.391-4.174v-16zM9.043 0v18.087l18.783 4.87v-18.087l-18.783-4.87z"></path>
<path d="M18.783 31.304l-18.783-4.87v-18.087l18.783 4.87v18.087z"></path>
<path d="M9.043 1.391l16.696 4.174-6.957 6.957-16.696-4.87 6.957-6.261zM9.043 0l-9.043 8.348 18.783 4.87 9.043-8.348-18.783-4.87zM20.174 30.609l7.652-7.652-7.652-2.087v9.739z"></path>
</symbol>
</defs>
</svg>
