<!-- Generated by IcoMoon.io -->
<svg version="1.1" xmlns="http://www.w3.org/2000/svg" width="62" height="32" viewBox="0 0 62 32">
<title>logo-6</title>
<path fill="#afb1b8" d="M31.304 14.609l-0.696-1.391v-2.087l0.696-1.391h2.783v2.087h-0.696v-0.696l-0.696-0.696h-0.696v4.174h0.696v-0.696h0.696v-0.696h0.696v1.391l-1.391 0.696-1.391-0.696zM35.478 14.609v-4.87h2.783l0.696 1.391v2.087l-0.696 1.391-1.391 0.696-1.391-0.696zM37.565 14.609v-4.174h-1.391v4.174c0.1 0.059 0.22 0.093 0.348 0.093s0.248-0.035 0.351-0.095l-0.003 0.002c0.1 0.059 0.22 0.093 0.348 0.093s0.248-0.035 0.351-0.095l-0.003 0.002zM40.348 9.739h0.696l0.696 3.478 1.391-3.478h0.696l0.696 5.565h-1.391v-4.174l-0.696 4.174h-0.696l-0.696-4.174v4.174h-1.391l0.696-5.565zM45.217 9.739h2.087c0.696 0 1.391 0 1.391 1.391l-1.391 1.391h-0.696v2.783h-1.391v-5.565zM47.304 11.826c0.1 0.059 0.22 0.093 0.348 0.093s0.248-0.035 0.351-0.095l-0.003 0.002v-1.391c-0.1-0.059-0.22-0.093-0.348-0.093s-0.248 0.035-0.351 0.095l0.003-0.002h-0.696v1.391h0.696zM50.783 9.739h0.696l1.391 5.565h-0.696l-0.696-1.391h-0.696l-0.696 1.391h-0.696l1.391-5.565zM51.478 13.217l-0.696-2.087v2.087h0.696zM53.565 9.739h1.391l1.391 2.783v-2.783h0.696v5.565h-0.696l-1.391-3.478v3.478h-1.391v-5.565zM59.13 13.217l-1.391-3.478h1.391l0.696 2.087 0.696-2.087h0.696l-0.696 3.478v2.087h-1.391v-2.087zM32.696 18.087h-0.696v2.087h-0.696v-2.087h1.391zM35.478 20.174l-0.696-0.696h-0.696l-0.696 0.696 0.696-2.087h0.696l0.696 2.087zM34.087 19.478h0.696v-1.391h-0.696v1.391zM37.565 20.174c0.104 0.028 0.224 0.044 0.348 0.044s0.243-0.016 0.358-0.046l-0.010 0.002v-0.696h0.696v0.696c-0.2 0.117-0.44 0.186-0.696 0.186s-0.496-0.069-0.702-0.19l0.007 0.004h-0.696c-0.31-0.142-0.553-0.386-0.692-0.687l-0.004-0.009v-0.696c0.142-0.31 0.386-0.553 0.687-0.692l0.009-0.004h0.696c0.105-0.019 0.225-0.029 0.348-0.029s0.243 0.011 0.36 0.031l-0.012-0.002c-0.2-0.117-0.44-0.186-0.696-0.186s-0.496 0.069-0.702 0.19l0.007-0.004v1.391c0 0.384 0.311 0.696 0.696 0.696v0zM41.043 20.174v0 0zM43.826 20.174h-0.696v-2.087h0.696v2.087zM45.217 18.087l1.391 2.087v-2.087h0.696v2.087h-0.696l-1.391-2.087v2.087h-0.696v-2.087h0.696zM50.087 18.087h-1.391v0.696h0.696v0.696h-0.696v0.696h-0.696v-2.087h2.087zM9.739 1.391l17.391 4.174v16l-17.391-4.174v-16zM9.043 0v18.087l18.783 4.87v-18.087l-18.783-4.87z"></path>
<path fill="#afb1b8" d="M18.783 31.304l-18.783-4.87v-18.087l18.783 4.87v18.087z"></path>
<path fill="#afb1b8" d="M9.043 1.391l16.696 4.174-6.957 6.957-16.696-4.87 6.957-6.261zM9.043 0l-9.043 8.348 18.783 4.87 9.043-8.348-18.783-4.87zM20.174 30.609l7.652-7.652-7.652-2.087v9.739z"></path>
</svg>
