<!-- Generated by IcoMoon.io -->
<svg version="1.1" xmlns="http://www.w3.org/2000/svg" width="29" height="32" viewBox="0 0 29 32">
<title>logo-1</title>
<path fill="#afb1b8" d="M3.84 0l4.48 4.48h13.44v12.16l4.48 4.48v-21.12h-22.4z"></path>
<path fill="#afb1b8" d="M0 4.48v20.48h21.76v-8.32l-12.8-12.16h-8.96zM17.92 21.76h-14.72v-14.080h1.28v13.44h13.44v0.64zM6.4 28.8v0 1.28h-0.64v-1.28l-0.64-1.28h0.64l0.64 1.28zM8.32 29.44h-0.64v0.64h-0.64l0.64-2.56h0.64l0.64 2.56-0.64-0.64zM7.68 28.8h0.64v-0.64l-0.64 0.64zM10.24 29.44v-1.92h1.28v0.64l-0.64 0.64 1.28 1.28h-0.64v-0.64l-0.64 0.64-0.64-0.64zM10.88 29.44v-0.64l-0.64 0.64h0.64zM14.72 28.8v0.64l-0.64 0.64h-0.64l-0.64-0.64v-1.28c-0.048-0.093-0.076-0.203-0.076-0.32 0-0.395 0.32-0.716 0.716-0.716 0.279 0 0.52 0.159 0.638 0.391l0.002 0.004h0.64v0.64h-1.28v1.28h0.64v-0.64h0.64zM16.64 28.8v0.64l-0.64 0.64-1.28-1.28 0.64-0.64v-0.64h1.28v1.28zM16.64 28.8v-0.64h-1.28v1.28h1.28v-0.64z"></path>
</svg>
