<!-- Generated by IcoMoon.io -->
<svg version="1.1" xmlns="http://www.w3.org/2000/svg" width="40" height="32" viewBox="0 0 40 32">
<title>logo-5</title>
<path fill="#afb1b8" d="M2.723 26.553l0.681 0.681c0.007 0.053 0.011 0.114 0.011 0.176 0 0.506-0.276 0.948-0.686 1.182l-0.007 0.003h-2.723v-4.085h2.723c0.376 0 0.681 0.305 0.681 0.681v0l-0.681 0.681v0.681zM0.681 25.872h1.362c0.057-0.098 0.091-0.215 0.091-0.34s-0.034-0.243-0.093-0.344l0.002 0.003h-1.362v0.681zM2.043 27.915c0.376 0 0.681-0.305 0.681-0.681v0c0-0.376-0.305-0.681-0.681-0.681v0h-1.362v1.362h1.362zM6.809 28.596l-1.362-1.362v1.362h-0.681v-4.085h2.723c0.283 0.251 0.461 0.615 0.461 1.021s-0.178 0.771-0.46 1.020l-0.001 0.001h-0.681l0.681 2.043h-0.681zM5.447 26.553h0.681l0.681-0.681c0.057-0.098 0.091-0.215 0.091-0.34s-0.034-0.243-0.093-0.344l0.002 0.003h-1.362v1.362zM11.574 27.915h-2.043v0.681h-0.681l1.362-4.085h0.681l2.043 4.085h-1.362v-0.681zM11.574 27.234l-0.681-2.043-0.681 2.043h1.362zM17.702 28.596h-0.681l-2.043-2.723v2.723h-1.362v-4.085h1.362l2.043 2.723v-2.723h0.681v4.085zM22.468 27.234l-0.681 1.362h-2.723v-4.085h2.723l0.681 0.681c0.126 0.302 0.199 0.653 0.199 1.021s-0.073 0.719-0.205 1.039l0.007-0.018zM21.787 27.234c0.283-0.251 0.461-0.615 0.461-1.021s-0.178-0.771-0.46-1.020l-0.001-0.001h-2.043v2.723h0.681l1.362-0.681zM12.255 0s10.894 4.085 10.894 10.213v10.894s-11.574-4.766-10.894-10.894v-10.213zM33.362 18.383c2.043-1.362 4.085-2.723 6.809-2.723v-3.404c-2.723 1.362-5.447 3.404-6.809 6.128z"></path>
<path fill="#afb1b8" d="M32 19.064c1.362-3.404 4.766-6.128 8.17-7.489v-8.851s-15.66 5.447-15.66 14.298v14.979l2.043-0.681v-1.362c0-4.085 2.043-8.17 5.447-10.894z"></path>
<path fill="#afb1b8" d="M29.957 24.511l0.681-2.723c-2.032 2.376-3.302 5.456-3.404 8.83l-0 0.021 3.404-1.362-0.681-4.766zM30.638 25.192l0.681 3.404c4.085-2.723 8.851-6.809 8.851-11.574-3.404 0-6.128 1.362-8.17 3.404l-1.362 4.766z"></path>
</svg>
