<!-- Generated by IcoMoon.io -->
<svg version="1.1" xmlns="http://www.w3.org/2000/svg" width="25" height="32" viewBox="0 0 25 32">
<title>logo-2</title>
<path fill="#afb1b8" d="M10.462 1.846h0.615l1.846 0.615v-1.846c-0.901-0.309-1.948-0.528-3.032-0.613l-0.045-0.003c-0.006 0-0.013 0-0.021 0-3.39 0-6.567 0.914-9.298 2.509l0.088-0.047v17.846c2.306-1.322 5.026-2.203 7.926-2.456l0.074-0.005h1.231v-1.846c-2.438 0.037-4.759 0.485-6.914 1.277l0.145-0.047h-0.615v-13.538c2.149-1.109 4.681-1.784 7.365-1.846l0.020-0h0.615z"></path>
<path fill="#afb1b8" d="M14.769 3.692c-1.144-0.116-2.188-0.333-3.19-0.646l0.113 0.030v17.231l3.077 0.615c0.006 0 0.013 0 0.021 0 3.39 0 6.567-0.914 9.298-2.509l-0.088 0.047v-17.231c-2.662 1.501-5.835 2.407-9.215 2.461l-0.016 0zM21.538 3.692h0.615v13.538c-2.269 1.176-4.953 1.866-7.798 1.866-0.287 0-0.573-0.007-0.857-0.021l0.040 0.002h-0.615v-14.154h1.846c2.438-0.037 4.759-0.485 6.914-1.277l-0.145 0.047zM1.846 25.846c-0.088-0.052-0.194-0.082-0.308-0.082s-0.219 0.031-0.311 0.084l0.003-0.002h-0.615c-0.274 0.126-0.489 0.341-0.612 0.608l-0.003 0.008v3.077h0.615v0.615h0.615c0.376-0.215 0.626-0.614 0.626-1.072 0-0.056-0.004-0.111-0.011-0.165l0.001 0.006h-0.615v0.615c-0.088 0.052-0.194 0.082-0.308 0.082s-0.219-0.031-0.311-0.084l0.003 0.002v-3.077c0.088-0.052 0.194-0.082 0.308-0.082s0.219 0.031 0.311 0.084l-0.003-0.002v0.615h0.615v-0.615c0.025-0.092 0.039-0.198 0.039-0.308s-0.014-0.215-0.041-0.316l0.002 0.009zM5.538 25.846c-0.177-0.104-0.389-0.165-0.615-0.165s-0.439 0.061-0.621 0.168l0.006-0.003h-0.615v3.692l0.615 0.615c0.092 0.025 0.198 0.039 0.308 0.039s0.215-0.014 0.316-0.041l-0.009 0.002 0.615-0.615c0.025-0.092 0.039-0.198 0.039-0.308s-0.014-0.215-0.041-0.316l0.002 0.009v-3.077zM4.923 28.923c0.052 0.088 0.082 0.194 0.082 0.308s-0.031 0.219-0.084 0.311l0.002-0.003c-0.088 0.052-0.194 0.082-0.308 0.082s-0.219-0.031-0.311-0.084l0.003 0.002c-0.052-0.088-0.082-0.194-0.082-0.308s0.031-0.219 0.084-0.311l-0.002 0.003v-2.462c0.088-0.052 0.194-0.082 0.308-0.082s0.219 0.031 0.311 0.084l-0.003-0.002v2.462zM9.846 30.154v-4.308h-0.615l-0.615 1.846-0.615-1.846h-0.615v4.308h0.615v-2.462l0.615 1.231 0.615-1.231v2.462h0.615zM13.538 25.846h-1.846v4.308h0.615v-1.846h1.231v-0.615c0.040-0.185 0.062-0.398 0.062-0.615s-0.023-0.43-0.066-0.635l0.004 0.020v-0.615zM12.923 27.077v0.615h-0.615v-1.231h0.615v0.615zM16.615 25.846h-0.615l-1.231 4.308h0.615l0.615-1.231h0.615v1.231h0.615l-0.615-4.308zM16 28.308v-1.231l0.615 1.231h-0.615zM20.308 28.308l-1.231-2.462v1.846h0.615l0.615 2.462h0.615v-4.308h-0.615v2.462zM24 25.846l-0.615 1.846-0.615-1.846h-0.615l1.231 2.462v1.846h0.615v-1.846l0.615-2.462h-0.615zM0 31.385v0.615h0.615v-1.231h-0.615v0.615zM2.462 30.769l-0.615 1.231h1.231l-0.615-1.231zM4.923 31.385v0.615l-0.615-0.615h1.231l-0.615-0.615-0.615 0.615v0.615c0.088 0.052 0.194 0.082 0.308 0.082s0.219-0.031 0.311-0.084l-0.003 0.002h0.615v-0.615h-0.615zM7.385 30.769v0zM9.231 30.769v0zM11.692 31.385l-0.615-0.615v0.615l0.615 0.615v-0.615zM13.538 31.385v-0.615h-0.615v1.231h0.615v-0.615zM17.846 31.385h-0.615v0h0.615v0zM19.692 31.385h0.615v-0.615h-0.615v0.615zM22.154 31.385v-0.615h-0.615v0.615h0.615v0zM22.154 31.385v0zM24 31.385h0.615v-0.615h-0.615v0.615z"></path>
</svg>
