<!-- Generated by IcoMoon.io -->
<svg version="1.1" xmlns="http://www.w3.org/2000/svg" width="31" height="32" viewBox="0 0 31 32">
<title>logo-3</title>
<path fill="#afb1b8" d="M4.465 31.256v0l-0.744 0.744-0.744-0.744c-0.030-0.112-0.047-0.24-0.047-0.372s0.017-0.26 0.050-0.382l-0.002 0.010c-0.030-0.112-0.047-0.24-0.047-0.372s0.017-0.26 0.050-0.382l-0.002 0.010c0.152-0.332 0.413-0.592 0.735-0.74l0.009-0.004c0.112-0.030 0.24-0.047 0.372-0.047s0.26 0.017 0.382 0.050l-0.010-0.002h0.744l-0.744 0.744v-0.744c-0.107-0.063-0.235-0.1-0.372-0.1s-0.265 0.037-0.376 0.102l0.003-0.002-0.744 0.744v1.488h1.488zM8.93 30.512v0.744h-2.233v-2.233h2.233v1.488zM8.93 30.512v-0.744h-0.744v-0.744h-0.744c-0.411 0-0.744 0.333-0.744 0.744v0 1.488h1.488c0.411 0 0.744-0.333 0.744-0.744v0zM11.907 30.512h0.744l0.744-1.488v0.744l-0.744 1.488h-0.744l-0.744-1.488v2.233h-0.744v-2.977h0.744l0.744 1.488zM15.628 30.512v1.488-2.977h1.488v1.488h-1.488zM15.628 30.512h1.488v-0.744c0.063-0.107 0.1-0.235 0.1-0.372s-0.037-0.265-0.102-0.376l0.002 0.003h-1.488v1.488zM20.837 32v-0.744h-2.233v0.744l0.744-2.977h0.744l0.744 2.977zM19.349 30.512h0.744l-0.744-0.744v-0.744 1.488zM22.326 29.023h0.744l1.488 2.233-1.488-1.488v2.233h-0.744v-2.977zM27.535 30.512v1.488h-0.744v-1.488l-0.744-1.488h0.744l0.744 0.744c0.030 0.112 0.047 0.24 0.047 0.372s-0.017 0.26-0.050 0.382l0.002-0.010v-0.744l0.744-0.744-0.744 1.488zM11.907 24.558h0.744l5.954-5.209c1.488-2.233 2.233-5.209 2.233-7.442l-2.977-2.977c0.744 2.977 0.744 5.954-0.744 8.186-0.744 2.977-2.977 5.209-5.209 7.442z"></path>
<path fill="#afb1b8" d="M11.163 23.814c2.233-1.488 4.465-3.721 5.209-6.698 1.488-2.977 1.488-5.954 0.744-8.93l-3.721-3.721c1.18 2.32 1.871 5.058 1.871 7.958 0 4.343-1.55 8.324-4.127 11.419l0.023-0.029zM24.558 14.884c-0.953 3.843-3.379 6.999-6.63 8.894l-0.067 0.036 5.209-2.977c1.488-0.744 2.233-2.977 2.977-4.465l-1.488-1.488z"></path>
<path fill="#afb1b8" d="M23.814 14.14l-2.233-2.233c0 2.977-0.744 5.209-2.233 7.442l-5.209 5.209h1.488c2.233-0.744 3.721-2.233 5.209-4.465 1.488-1.488 2.977-3.721 2.977-5.954zM11.163 2.977l-2.977-2.977c-2.233 0.744-4.465 2.233-5.954 4.465s-2.233 4.465-2.233 7.442 0.744 5.209 2.977 7.442c1.488 2.233 4.465 3.721 7.442 4.465 2.332-2.989 3.74-6.798 3.74-10.936 0-3.69-1.119-7.118-3.036-9.965l0.040 0.064zM30.512 14.14c0-3.721-1.488-6.698-3.721-8.93-2.416-2.378-5.733-3.846-9.394-3.846-1.706 0-3.337 0.319-4.837 0.9l0.091-0.031 17.116 16.372 0.744-4.465z"></path>
</svg>
