<!-- Generated by IcoMoon.io -->
<svg version="1.1" xmlns="http://www.w3.org/2000/svg" width="60" height="32" viewBox="0 0 60 32">
<title>logo-4</title>
<path fill="#2196f3" d="M8.93 9.674c-1.488 0-2.977 1.488-2.977 2.977s1.488 2.977 2.977 2.977c2.233 0 2.977-1.488 2.977-2.977s-0.744-2.977-2.977-2.977zM32 8.93c0-2.977-1.488-4.465-2.977-6.698-1.488-1.488-3.721-2.233-5.954-2.233l-6.698 2.233c-1.488 2.233-2.233 3.721-2.233 6.698v11.907s17.86-1.488 17.86-11.907zM0 25.302l1.488 4.465c1.096 1.239 2.69 2.016 4.465 2.016s3.369-0.777 4.46-2.009l0.005-0.006c1.488-1.488 1.488-2.977 1.488-4.465v-8.93s-11.907 1.488-11.907 8.93zM5.954 26.791h-0.744l-0.744-0.744c-0.158-0.233-0.252-0.519-0.252-0.828 0-0.645 0.411-1.195 0.985-1.401l0.010-0.003c0.213-0.125 0.47-0.199 0.744-0.199s0.531 0.074 0.751 0.203l-0.007-0.004 0.744 0.744c0.125 0.213 0.199 0.47 0.199 0.744s-0.074 0.531-0.203 0.751l0.004-0.007c-0.26 0.455-0.743 0.757-1.296 0.757-0.068 0-0.135-0.005-0.2-0.013l0.008 0.001zM18.605 26.047h-1.488v1.488-3.721h1.488v0.744h-1.488v0.744h1.488v0.744zM21.581 25.302v1.488c-0.152 0.332-0.413 0.592-0.735 0.74l-0.009 0.004-0.744-0.744h-0.744v-2.233c0.152-0.332 0.413-0.592 0.735-0.74l0.009-0.004h0.744l0.744 0.744v0.744zM20.837 25.302v-0.744h-0.744v2.233h0.744v-1.488zM23.814 26.047h-0.744v-0.744l-0.744-0.744 0.744-0.744h0.744l0.744 0.744v0.744h-0.744v-0.744h-0.744v0.744h0.744l0.744 0.744v0.744l-1.488 0.744v-0.744h-0.744v-0.744h0.744v0.744h0.744v-0.744zM27.535 24.558h-0.744v2.977h-0.744v-2.977h-1.488v-0.744h2.977v0.744zM29.767 26.047h-1.488v0.744h1.488v0.744h-2.233v-3.721h2.233v0.744h-1.488v0.744h1.488v0.744zM31.256 26.047v1.488h-0.744v-3.721h0.744l1.488 1.488-0.744 0.744 0.744 0.744v0.744h-0.744l-0.744-1.488zM31.256 25.302h0.744v-0.744h-0.744v0.744zM34.977 26.047v1.488h-0.744v-3.721h2.233v2.233h-1.488zM34.977 25.302h0.744v-0.744h-0.744v0.744zM38.698 26.047h-0.744v0.744h1.488v0.744h-2.233v-3.721h2.233v0.744h-1.488v0.744h0.744v0.744zM42.419 24.558h-1.488v2.977h-0.744v-2.977h-0.744v-0.744h2.977v0.744zM44.651 26.047h-1.488v0.744h1.488v0.744h-2.233v-3.721h2.233v0.744h-1.488v0.744h1.488v0.744zM46.14 26.047h-0.744v1.488h-0.744v-3.721h1.488l1.488 1.488h-0.744v0.744l0.744 0.744v0.744h-0.744l-0.744-1.488zM45.395 25.302h1.488v-0.744h-1.488v0.744zM49.86 26.047h-0.744l-1.488-1.488 0.744-0.744h1.488v1.488l-0.744-0.744h-0.744v0.744h0.744l0.744 0.744v0.744l-0.744 0.744-0.744-0.744h-0.744v-0.744h0.744l0.744 0.744 0.744-0.744z"></path>
</svg>
