<svg width="70" height="70" fill="none" xmlns="http://www.w3.org/2000/svg"><path d="M70 10l-1-1-4-1-2-3h-2l-2 3-4 1a1 1 0 00-1 2l3 3-1 4a1 1 0 002 1l4-2 4 2a1 1 0 001-1v-4l3-3v-1zm-5 3l-1 1 1 2-3-1a1 1 0 00-1 0l-2 1 1-2-1-1-2-2h3l1-1 1-2 1 2 1 1h2l-1 2zM57 45h-2v2h2v-2zM57 50h-2v2h2v-2zM60 47h-3v3h3v-3zM55 47h-2v3h2v-3zM49 58h-2v2h2v-2zM49 62h-2v3h2v-3zM51 60h-2v2h2v-2zM47 60h-3v2h3v-2zM35 53h-2v2h2v-2zM35 58h-2v2h2v-2zM37 55h-2v3h2v-3zM33 55h-3v3h3v-3zM13 13h-3v3h3v-3zM13 18h-3v2h3v-2zM15 16h-2v2h2v-2zM10 16H8v2h2v-2z" fill="#2196F3"/><path d="M54 31l-3-2-2 1-3 2-4 3-3-1a15 15 0 00-7-29 15 15 0 00-12 24h-7l-7 3-4 2a4 4 0 004 7l3-2 5-2h3L5 49l-3 3a4 4 0 000 5 4 4 0 005 0l3-3 4-3 2 2-4 4-3 3a4 4 0 000 5 4 4 0 005 0l3-3 5-5 2-2 11-12 8 1h1l7-5 3-3v-5zM5 39H3a2 2 0 010-3l3-1 1 2v1l-2 1zm7-4l-3 2-1-2v-1l4-2v3zm33-15l-1 6-9-4-2-3 3-11c6 2 9 7 9 12zm-25 0A13 13 0 0134 8l-3 10c-2 0-4 2-4 4a4 4 0 007 2l9 4a13 13 0 01-23-8zm13 2l-2 2-2-2 2-2 2 2zM5 55H4a1 1 0 010-2l2-2 1 2-2 2zm7 8h-1a1 1 0 010-2l2-2 1 1 1 1-3 2zm8-7l-4 3h-1l-1-1 4-4v-1h0v-1l-3-3-1-1h-1l-4 3-2-2 6-5 9 10-2 2zm15-16a1 1 0 00-1 1L24 52l-10-9 6-7a1 1 0 000-2h-5v-3h7a15 15 0 0013 4h1l5 3v1l1 2-7-1zm9 1l-1-4 3-2 1 1 1 2-4 3zm8-7l-2 2-2-3 2-1h1a2 2 0 011 2z" fill="#212121"/><path d="M30 41l-5-5h-2l-4 5a1 1 0 000 1l4 5a1 1 0 002 0l5-5a1 1 0 000-1zm-6 3l-3-3 3-3 3 3-3 3zM38 11l-1 2s4 1 4 5h2c0-4-4-6-5-7zM43 20h-2v3h2v-3z" fill="#212121"/></svg>