<svg width="70" height="70" fill="none" xmlns="http://www.w3.org/2000/svg"><g clip-path="url(#clip0)"><path d="M68 33a33 33 0 10-43 32h1l1-1 8-26a4 4 0 10-2-8L22 19a1 1 0 00-2 2l11 11c-1 1 0 4 1 5l-8 25a31 31 0 1123-1v-4a1 1 0 00-3 0l-8 7a1 1 0 000 3l11 3a1 1 0 002-2l-1-4c12-5 20-17 20-31zm-33-1a1 1 0 110 3 1 1 0 010-3zm5 33l4-5 2 7-6-2z" fill="#212121"/><path d="M34 7v3a1 1 0 102 0V7a1 1 0 00-2 0zM8 32a1 1 0 000 3h3a1 1 0 100-3H8zM61 35a1 1 0 100-3h-2a1 1 0 000 3h2z" fill="#2196F3"/></g><defs><clipPath id="clip0"><path fill="#fff" d="M0 0h70v70H0z"/></clipPath></defs></svg>