<svg width="80" height="43" fill="none" xmlns="http://www.w3.org/2000/svg"><path d="M12 13c-2 0-4 2-4 4s2 4 4 4c3 0 4-2 4-4s-1-4-4-4zM43 12c0-4-2-6-4-9-2-2-5-3-8-3l-9 3c-2 3-3 5-3 9v16s24-2 24-16zM0 34l2 6a8 8 0 0012 0c2-2 2-4 2-6V22S0 24 0 34zm8 2H7l-1-1a2 2 0 011-3 2 2 0 012 0l1 1a2 2 0 010 2 2 2 0 01-2 1zM25 35h-2v2-5h2v1h-2v1h2v1zm4-1v2a2 2 0 01-1 1l-1-1h-1v-2-1a2 2 0 011-1h1l1 1v1zm-1 0v-1h-1v3h1v-2zm4 1h-1v-1l-1-1 1-1h1l1 1v1h-1v-1h-1v1h1l1 1v1l-2 1v-1h-1v-1h1v1h1v-1zm5-2h-1v4h-1v-4h-2v-1h4v1zm3 2h-2v1h2v1h-3v-5h3v1h-2v1h2v1zm2 0v2h-1v-5h1l1 1 1 1-1 1 1 1v1h-1l-1-2zm0-1h1v-1h-1v1zm5 1v2h-1v-5h3v3h-2zm0-1h1v-1h-1v1zm5 1h-1v1h2v1h-3v-5h3v1h-2v1h1v1zm5-2h-2v4h-1v-4h-1v-1h4v1zm3 2h-2v1h2v1h-3v-5h3v1h-2v1h2v1zm2 0h-1v2h-1v-5h2l1 1 1 1h-1v1l1 1v1h-1l-1-2zm-1-1h2v-1h-2v1zm6 1h-1l-1-1-1-1 1-1h2v2l-1-1h-1v1h1l1 1v1l-1 1-1-1h-1v-1h1l1 1 1-1z" fill="#2196F3"/></svg>