<svg width="59" height="47" fill="none" xmlns="http://www.w3.org/2000/svg"><path d="M4 39l1 1a2 2 0 01-1 2H0v-6h4a1 1 0 011 1l-1 1v1zm-3-1h2a1 1 0 000-1H1v1zm2 3a1 1 0 001-1 1 1 0 00-1-1H1v2h2zM10 42l-2-2v2H7v-6h4a2 2 0 010 3h-1l1 3h-1zm-2-3h1l1-1a1 1 0 000-1H8v2zM17 41h-3v1h-1l2-6h1l3 6h-2v-1zm0-1l-1-3-1 3h2zM26 42h-1l-3-4v4h-2v-6h2l3 4v-4h1v6zM33 40l-1 2h-4v-6h4l1 1a4 4 0 010 3zm-1 0a2 2 0 000-3h-3v4h1l2-1zM18 0s16 6 16 15v16s-17-7-16-16V0zM49 27c3-2 6-4 10-4v-5c-4 2-8 5-10 9z" fill="#AFB1B8"/><path d="M47 28c2-5 7-9 12-11V4s-23 8-23 21v22l3-1v-2c0-6 3-12 8-16z" fill="#AFB1B8"/><path d="M44 36l1-4a21 21 0 00-5 13l5-2-1-7zM45 37l1 5c6-4 13-10 13-17-5 0-9 2-12 5l-2 7z" fill="#AFB1B8"/></svg>